<?xml version="1.0" encoding="utf-8"?>
<!-- Generator: Adobe Illustrator 23.0.6, SVG Export Plug-In . SVG Version: 6.00 Build 0)  -->
<svg version="1.1" id="Layer_1" xmlns="http://www.w3.org/2000/svg" xmlns:xlink="http://www.w3.org/1999/xlink" x="0px" y="0px"
	 viewBox="0 0 11 5" style="enable-background:new 0 0 11 5;" xml:space="preserve">
<style type="text/css">
	.st0{fill:#2B4948;}
</style>
<path class="st0" d="M5,1H0.6C0.3,1,0.1,0.8,0.1,0.5v0C0.1,0.2,0.3,0,0.6,0L5,0c0.3,0,0.5,0.2,0.5,0.5v0C5.5,0.8,5.3,1,5,1z"/>
<path class="st0" d="M10.5,5H6.1C5.8,5,5.6,4.8,5.6,4.5v0C5.6,4.2,5.8,4,6.1,4h4.4C10.8,4,11,4.2,11,4.5v0C11,4.8,10.8,5,10.5,5z"/>
<path class="st0" d="M10.5,3h-10C0.2,3,0,2.8,0,2.5v0C0,2.2,0.2,2,0.5,2h10C10.8,2,11,2.2,11,2.5v0C11,2.8,10.8,3,10.5,3z"/>
</svg>
