<?xml version="1.0" encoding="utf-8"?>
<!-- Generator: Adobe Illustrator 23.0.6, SVG Export Plug-In . SVG Version: 6.00 Build 0)  -->
<svg version="1.1" id="instagram" xmlns="http://www.w3.org/2000/svg" xmlns:xlink="http://www.w3.org/1999/xlink" x="0px" y="0px"
	 viewBox="0 0 89.5 89.5" style="enable-background:new 0 0 89.5 89.5;" xml:space="preserve">
<style type="text/css">
	.st0{fill:#90B29E;}
</style>
<g id="instagram_1_">
	<path id="camera" class="st0" d="M44.7,8.1c11.9,0,13.4,0.1,18.1,0.3c4.4,0.2,6.7,0.9,8.3,1.5c2.1,0.8,3.6,1.8,5.1,3.4
		c1.6,1.6,2.5,3,3.3,5.1c0.6,1.6,1.3,3.9,1.5,8.3c0.2,4.7,0.3,6.1,0.3,18.1S81.2,58.2,81,62.9c-0.2,4.4-0.9,6.7-1.5,8.3
		c-0.8,2.1-1.8,3.6-3.3,5.1c-1.6,1.6-3.1,2.5-5.1,3.3c-1.6,0.6-3.9,1.3-8.3,1.5c-4.7,0.2-6.1,0.3-18.1,0.3s-13.4-0.1-18.1-0.3
		c-4.4-0.2-6.7-0.9-8.3-1.5c-2.1-0.8-3.6-1.8-5.1-3.3s-2.5-3.1-3.4-5.1c-0.6-1.6-1.3-3.9-1.5-8.3C8.1,58.2,8,56.8,8,44.8
		s0.1-13.4,0.3-18.1c0.2-4.4,0.9-6.7,1.5-8.3c0.8-2.1,1.8-3.6,3.4-5.1c1.6-1.6,3-2.5,5.1-3.4c1.6-0.6,3.9-1.3,8.3-1.5
		C31.4,8.1,32.8,8.1,44.7,8.1 M44.7,0C32.6,0,31.1,0.1,26.3,0.3s-8,1-10.9,2.1S10,5,7.5,7.5s-4,5-5.2,7.9c-1.1,2.9-1.9,6.1-2.1,10.9
		C0.1,31.1,0,32.6,0,44.7s0.1,13.7,0.3,18.4c0.2,4.8,1,8,2.1,10.9c1.1,3,2.6,5.5,5.1,7.9c2.5,2.5,5,4,7.9,5.2
		c2.9,1.1,6.1,1.9,10.9,2.1s6.3,0.3,18.4,0.3s13.7-0.1,18.4-0.3c4.8-0.2,8-1,10.9-2.1s5.4-2.7,7.9-5.2s4-5,5.2-7.9
		c1.1-2.8,1.9-6.1,2.1-10.9s0.3-6.3,0.3-18.4S89.4,31,89.2,26.3c-0.2-4.8-1-8-2.1-10.9s-2.7-5.4-5.2-7.9s-5-4-7.9-5.2
		c-2.8-1.1-6.1-1.9-10.9-2.1C58.4,0.1,56.9,0,44.7,0"/>
	<path id="white_x5F_circle" class="st0" d="M44.7,21.8c-12.7,0-23,10.3-23,23s10.3,23,23,23s23-10.3,23-23
		C67.7,32,57.4,21.8,44.7,21.8 M44.7,59.6c-8.2,0-14.9-6.7-14.9-14.9s6.7-14.9,14.9-14.9s14.9,6.7,14.9,14.9
		C59.6,53,53,59.6,44.7,59.6"/>
	<path id="purple_x5F_circle" class="st0" d="M74,20.9c0,3-2.4,5.4-5.4,5.4s-5.4-2.4-5.4-5.4s2.4-5.4,5.4-5.4S74,17.9,74,20.9"/>
</g>
</svg>
