<?xml version="1.0" encoding="utf-8"?>
<!-- Generator: Adobe Illustrator 23.0.6, SVG Export Plug-In . SVG Version: 6.00 Build 0)  -->
<svg version="1.1" id="twitter" xmlns="http://www.w3.org/2000/svg" xmlns:xlink="http://www.w3.org/1999/xlink" x="0px" y="0px"
	 viewBox="0 0 114.3 92.9" style="enable-background:new 0 0 114.3 92.9;" xml:space="preserve">
<style type="text/css">
	.st0{fill:#90B29E;}
</style>
<path id="purple_x5F_twitter" class="st0" d="M0,82.3C10.4,89,22.7,92.9,35.9,92.9c43.5,0,68.1-36.8,66.6-69.8
	c4.6-3.3,8.6-7.4,11.7-12.1c-4.2,1.9-8.7,3.1-13.5,3.7c4.8-2.9,8.6-7.5,10.3-13c-4.5,2.7-9.6,4.6-14.9,5.7C92,2.8,85.9,0,79.1,0
	C64,0,52.9,14.1,56.3,28.8C36.8,27.8,19.5,18.5,8,4.3c-6.1,10.5-3.2,24.3,7.3,31.3c-3.8-0.1-7.5-1.2-10.6-2.9
	c-0.3,10.9,7.5,21,18.8,23.3c-3.3,0.9-6.9,1.1-10.6,0.4c3,9.3,11.6,16.1,21.9,16.3C24.9,80.4,12.4,83.8,0,82.3z"/>
</svg>
