<?xml version="1.0" encoding="utf-8"?>
<!-- Generator: Adobe Illustrator 23.0.6, SVG Export Plug-In . SVG Version: 6.00 Build 0)  -->
<svg version="1.1" id="Layer_1" xmlns="http://www.w3.org/2000/svg" xmlns:xlink="http://www.w3.org/1999/xlink" x="0px" y="0px"
	 viewBox="0 0 156 58.9" style="enable-background:new 0 0 156 58.9;" xml:space="preserve">
<style type="text/css">
	.st0{fill:#2B4948;}
</style>
<g>
	<path class="st0" d="M6.9,29.7C4.7,24,3.6,23.6,0,23.5V21h18.6v2.5c-3.7,0.1-4.7,0.2-4.7,2.5c0,1.5,0.5,2.9,1,4.3l7.4,20.3h0.3
		l6.4-15.1c2-4.6,2.7-7.2,2.7-9.3s-0.8-2.7-4.5-2.7V21h13.9v2.5c-1.5,0-2.7,0.8-3.6,2c-1.5,2-3.3,7.4-4.3,9.7L22.8,58.9h-4.1
		L6.9,29.7z"/>
	<path class="st0" d="M75.7,51.6c-4.1,4.9-8.8,7.2-14.8,7.2C50,58.8,42.6,51.2,42.6,40c0-11.5,7.9-19.7,19.2-19.7
		c9,0,14.2,5.1,14.2,14.2c0,1.3-0.3,1.4-2.2,1.4h-23c-0.2,0.8-0.3,1.9-0.3,3.2c0,9.7,4.9,16.1,12.4,16.1c3.9,0,7.1-1.7,10.6-5.5
		L75.7,51.6z M64.1,32.7c3.8,0,4.2-0.3,4.2-2c0-4.3-3-7.1-7.7-7.1c-5,0-8.2,3.1-9.4,9H64.1z"/>
	<path class="st0" d="M92.7,47.2c0,7.1,0.8,8.3,6.2,8.5v2.5H79.6v-2.5c5.5-0.3,6.6-1.5,6.6-8V17.5c0-5-0.1-8.6-0.4-9.8
		C85.3,5.5,83.9,5,79.5,5V2.6L92.7,0V47.2z"/>
	<path class="st0" d="M125.2,34.4v-2.9c0-5.8-2.3-8.5-7.3-8.5c-3.2,0-4.1,0.9-5.3,4.6c-1,2.7-1.8,3.4-3.6,3.4
		c-2.2,0-3.5-1.3-3.5-3.5c0-4.5,5-7.1,13.7-7.1c9.4,0,12.9,2.9,12.9,10.9v15.7c0,5.4,1.1,8,3.2,8c1.3,0,2.6-0.1,3.4-1.5l1,1.7
		c-1.1,2.2-4.5,3.8-7.8,3.8c-4.1,0-6.1-2.7-6.1-7.5h-0.3c-2.5,4.6-7,7.4-12.2,7.4c-5.8,0-9.5-3.3-9.5-8.3c0-4.5,2.9-8.1,11.3-11.7
		L125.2,34.4z M125.2,37.4c-10.7,4.1-14.4,7.8-14.4,11.9c0,3.1,2.2,5.3,5.6,5.3c4.8,0,8.8-5.3,8.8-11.6V37.4z"/>
	<path class="st0" d="M150.5,48.1c3.1,0,5.5,2.4,5.5,5.5c0,3-2.4,5.4-5.5,5.4c-3,0-5.4-2.4-5.4-5.4
		C145.1,50.5,147.5,48.1,150.5,48.1z"/>
</g>
</svg>
